<?xml version="1.0" encoding="utf-8"?>
<!-- Svg Vector Icons : http://www.onlinewebfonts.com/icon -->
<!DOCTYPE svg PUBLIC "-//W3C//DTD SVG 1.1//EN" "http://www.w3.org/Graphics/SVG/1.1/DTD/svg11.dtd">
<svg version="1.1" xmlns="http://www.w3.org/2000/svg" xmlns:xlink="http://www.w3.org/1999/xlink" x="0px" y="0px" viewBox="0 0 256 256" enable-background="new 0 0 256 256" xml:space="preserve">
<metadata> Svg Vector Icons : http://www.onlinewebfonts.com/icon </metadata>
<g><g><path fill="#000000" d="M218.9,57.2h-47.6V45.4c0-10.8-8.8-19.6-19.6-19.6h-47.3c-10.8,0-19.6,8.8-19.6,19.6v11.8H37.1c-15,0-27.1,12.1-27.1,27.1v118.8c0,15,12.1,27.1,27.1,27.1h181.8c15,0,27.1-12.1,27.1-27.1V90.6c0,0.5,0,1,0,1.6v-7.9C246,69.3,233.9,57.2,218.9,57.2z M96.6,45.4c0-4.3,3.5-7.8,7.8-7.8h47.3c4.3,0,7.8,3.5,7.8,7.8v11.8H96.6V45.4L96.6,45.4z M178.9,147.7L178.9,147.7c-0.3,3.7-1,7.3-2,10.7l0,0c-0.1,0.4-0.2,0.7-0.3,1.1c0,0,0,0,0,0.1c-0.1,0.3-0.2,0.7-0.3,1c0,0,0,0.1,0,0.2c-0.1,0.3-0.2,0.6-0.3,0.9c0,0.1,0,0.2-0.1,0.2c-0.1,0.3-0.2,0.6-0.3,0.8c0,0.1-0.1,0.2-0.1,0.3c-0.1,0.3-0.2,0.5-0.3,0.8c0,0.1-0.1,0.3-0.2,0.4c-0.1,0.2-0.2,0.4-0.3,0.6c-0.1,0.2-0.2,0.4-0.2,0.5c-0.1,0.2-0.2,0.3-0.2,0.5c-0.1,0.2-0.2,0.5-0.4,0.7c0,0.1-0.1,0.2-0.2,0.3c-0.2,0.3-0.3,0.7-0.5,1c0,0,0,0,0,0.1c-8.7,15.9-25.6,26.7-44.9,26.7c-1.8,0-3.5-0.1-5.2-0.3c0,0,0,0-0.1,0c-0.4,0-0.7-0.1-1.1-0.1c-0.1,0-0.3,0-0.4,0c-0.2,0-0.5-0.1-0.7-0.1c-0.2,0-0.5-0.1-0.7-0.1c-0.1,0-0.3,0-0.5-0.1c-0.3,0-0.6-0.1-0.9-0.2c-0.1,0-0.1,0-0.2,0c-22.2-4.4-39.3-23.2-41-46.2c0,0.2,0,0.4,0,0.6c-0.1-1.5-0.2-3-0.2-4.5c0-28.2,22.9-51.1,51.1-51.1c28.2,0,51.1,22.9,51.1,51.1C179,145.1,179,146.4,178.9,147.7z M160.1,131.9h-20.3v-20.4c0-1.9-1.5-3.3-3.4-3.3h-16.9c-1.9,0-3.4,1.5-3.4,3.3v20.4H96c-1.9,0-3.3,1.5-3.3,3.4v16.9c0,1.9,1.5,3.4,3.3,3.4h20.3v20.1c0,1.9,1.5,3.3,3.4,3.3h16.9c1.9,0,3.4-1.5,3.4-3.3v-20.1h20.3c1.9,0,3.3-1.5,3.3-3.4v-16.9C163.4,133.4,161.9,131.9,160.1,131.9z"/></g></g>
</svg>